/* XPM */
static char * cheese_16x16_xpm[] = {
"16 16 89 1",
" 	c None",
".	c #767676",
"+	c #616161",
"@	c #111111",
"#	c #282828",
"$	c #CBC688",
"%	c #000000",
"&	c #505050",
"*	c #FAF6B8",
"=	c #EBDE94",
"-	c #E5D677",
";	c #E9D774",
">	c #4D4B2F",
",	c #2D2D25",
"'	c #454545",
")	c #F9F4AA",
"!	c #D8C66B",
"~	c #DCC76B",
"{	c #E0CB6D",
"]	c #E2CD6E",
"^	c #61582F",
"/	c #BEB05F",
"(	c #938B5C",
"_	c #FFFFC8",
":	c #E4D373",
"<	c #DDC96C",
"[	c #EDD874",
"}	c #E8D472",
"|	c #E9D573",
"1	c #5F572F",
"2	c #DEC96C",
"3	c #BBA95B",
"4	c #FAF5A6",
"5	c #DFCB6D",
"6	c #E2CE6E",
"7	c #EAD472",
"8	c #E9D372",
"9	c #5C542D",
"0	c #D2BE66",
"a	c #BBAA5C",
"b	c #FFFFD3",
"c	c #F3E686",
"d	c #D8C369",
"e	c #D4C167",
"f	c #DAC66A",
"g	c #E2CF70",
"h	c #D1BE67",
"i	c #5C552E",
"j	c #FFFFE5",
"k	c #DDCB6F",
"l	c #DBC76B",
"m	c #B0A056",
"n	c #56513E",
"o	c #080704",
"p	c #4B4425",
"q	c #544C29",
"r	c #FFFFCD",
"s	c #EDDD79",
"t	c #DECA6D",
"u	c #797872",
"v	c #727272",
"w	c #4F4827",
"x	c #F9F2A3",
"y	c #A49650",
"z	c #404040",
"A	c #706637",
"B	c #A1924F",
"C	c #9F904E",
"D	c #FFFEA7",
"E	c #DECC6E",
"F	c #0C0B06",
"G	c #1C1C1C",
"H	c #252112",
"I	c #958849",
"J	c #E6D271",
"K	c #AFA056",
"L	c #F5EB7F",
"M	c #232011",
"N	c #0C0B08",
"O	c #716E56",
"P	c #968949",
"Q	c #D8C46A",
"R	c #D1BE66",
"S	c #D6C269",
"T	c #CFBD66",
"U	c #C6B561",
"V	c #BCAC5D",
"W	c #CAB863",
"X	c #B4A65A",
"        .+      ",
"        @#      ",
"       $%%&     ",
"    *=-;%>,'    ",
"   )!~{]%^/(    ",
"  _:<[}|%123    ",
"  456|78%90a    ",
" bcdefgh%i      ",
" jklmnop%q      ",
" rstuv%%%w      ",
"  xyz%%%%ABC    ",
"  DEF%%GHIJK    ",
"   LCMNOPQR     ",
"    STUVWX      ",
"                ",
"                "};
