/* XPM */
static char * cheese_48x482_xpm[] = {
"48 48 414 2",
"  	c None",
". 	c #A1A1A1",
"+ 	c #000000",
"@ 	c #1E1E1E",
"# 	c #404040",
"$ 	c #3F3F3F",
"% 	c #E2E2E2",
"& 	c #C7C7C7",
"* 	c #7F7F7F",
"= 	c #F8F8E3",
"- 	c #FFFFE7",
"; 	c #FFFFE4",
"> 	c #FFFFB5",
", 	c #E6DE77",
"' 	c #E5DC77",
") 	c #E9E179",
"! 	c #FFFFFD",
"~ 	c #FFFFE5",
"{ 	c #FFFFC0",
"] 	c #FFFFA0",
"^ 	c #FFFF91",
"/ 	c #ECE27A",
"( 	c #F5EA7E",
"_ 	c #F7ED7F",
": 	c #F8ED7F",
"< 	c #A2A26B",
"[ 	c #2B2B2B",
"} 	c #060606",
"| 	c #FFFFB6",
"1 	c #F1E37A",
"2 	c #E1CC6E",
"3 	c #E2CC6D",
"4 	c #D6C369",
"5 	c #D8C469",
"6 	c #E0CB6D",
"7 	c #E2CD6E",
"8 	c #8C8C5C",
"9 	c #7B7B56",
"0 	c #FFFFA3",
"a 	c #E6D371",
"b 	c #DCC86B",
"c 	c #DAC66A",
"d 	c #D5C168",
"e 	c #DFCA6C",
"f 	c #918549",
"g 	c #7D7640",
"h 	c #989451",
"i 	c #FFFFE1",
"j 	c #FFFD89",
"k 	c #D3BF64",
"l 	c #D1BE66",
"m 	c #DCC76B",
"n 	c #D9C469",
"o 	c #D7C268",
"p 	c #E1CC6D",
"q 	c #968849",
"r 	c #7E723E",
"s 	c #A69650",
"t 	c #99944E",
"u 	c #7B763F",
"v 	c #77733E",
"w 	c #919191",
"x 	c #FFFFE3",
"y 	c #FFFFAF",
"z 	c #F7E37A",
"A 	c #CAB863",
"B 	c #CCB963",
"C 	c #CCB964",
"D 	c #D5C068",
"E 	c #DDC86C",
"F 	c #DBC66B",
"G 	c #D0BD65",
"H 	c #CEC269",
"I 	c #C7BE6A",
"J 	c #7A753F",
"K 	c #887D44",
"L 	c #FFFFC6",
"M 	c #FEFB85",
"N 	c #D7C467",
"O 	c #E0CB6E",
"P 	c #DAC569",
"Q 	c #D8C36A",
"R 	c #DCC86C",
"S 	c #E3CE6F",
"T 	c #E6D170",
"U 	c #E0CC6D",
"V 	c #E8D271",
"W 	c #C3B05F",
"X 	c #A3934E",
"Y 	c #B5A35A",
"Z 	c #FFFFCD",
"` 	c #D1BE67",
" .	c #DEC96D",
"..	c #DFCC6E",
"+.	c #E4CF6F",
"@.	c #EFDA75",
"#.	c #EDD774",
"$.	c #EAD874",
"%.	c #E4CE6E",
"&.	c #D3BF67",
"*.	c #9C8E4C",
"=.	c #998B4B",
"-.	c #FFFFE0",
";.	c #FFFF9F",
">.	c #FCF383",
",.	c #DDC96C",
"'.	c #DECB6D",
").	c #E0CC6E",
"!.	c #E4D270",
"~.	c #FBE97D",
"{.	c #EAD573",
"].	c #E7D271",
"^.	c #EEDA75",
"/.	c #EBD572",
"(.	c #E4CE6F",
"_.	c #E2CC6F",
":.	c #E8D270",
"<.	c #827640",
"[.	c #81753F",
"}.	c #C2B05F",
"|.	c #FFFFFF",
"1.	c #FFFFC3",
"2.	c #D9C56A",
"3.	c #E7D171",
"4.	c #D8C369",
"5.	c #D8C269",
"6.	c #FCE77B",
"7.	c #EDD975",
"8.	c #F4E279",
"9.	c #F8E57B",
"0.	c #F4E37B",
"a.	c #A09451",
"b.	c #897C43",
"c.	c #C4B361",
"d.	c #D2BE66",
"e.	c #D4BF67",
"f.	c #DAC56A",
"g.	c #998A4B",
"h.	c #80743F",
"i.	c #FFFF8F",
"j.	c #ECD674",
"k.	c #C9B762",
"l.	c #C8B662",
"m.	c #D3BE66",
"n.	c #ECD573",
"o.	c #F2E279",
"p.	c #E9D573",
"q.	c #A49550",
"r.	c #948A4A",
"s.	c #D7C168",
"t.	c #BEAC5C",
"u.	c #D4C168",
"v.	c #D0BD66",
"w.	c #857A41",
"x.	c #EADB73",
"y.	c #E2CE6E",
"z.	c #E0CB6C",
"A.	c #F0D975",
"B.	c #F9E279",
"C.	c #F5E47B",
"D.	c #E6D071",
"E.	c #EDD974",
"F.	c #EDD773",
"G.	c #8A7D43",
"H.	c #827A42",
"I.	c #DECA6C",
"J.	c #B4A357",
"K.	c #A79852",
"L.	c #B4A25A",
"M.	c #FFF584",
"N.	c #D6C268",
"O.	c #EBD974",
"P.	c #EDDC76",
"Q.	c #E4D170",
"R.	c #E5CF6F",
"S.	c #EFD975",
"T.	c #F4DD76",
"U.	c #766A39",
"V.	c #807841",
"W.	c #E3CC6E",
"X.	c #BCAB5C",
"Y.	c #DEC96E",
"Z.	c #BAA85A",
"`.	c #FFFFBD",
" +	c #FCF081",
".+	c #C9B662",
"++	c #C7B561",
"@+	c #C4B260",
"#+	c #E3CD6F",
"$+	c #ECD672",
"%+	c #F5E57B",
"&+	c #F1DE77",
"*+	c #786C3A",
"=+	c #7B733E",
"-+	c #DECD6E",
";+	c #D7C36B",
">+	c #FFFFDB",
",+	c #F1DF78",
"'+	c #E1CB6D",
")+	c #C9B562",
"!+	c #CEBC65",
"~+	c #D7C469",
"{+	c #DAC76A",
"]+	c #D4C167",
"^+	c #EBD472",
"/+	c #EFE27A",
"(+	c #CBB863",
"_+	c #CDBA64",
":+	c #8B7E44",
"<+	c #8D8045",
"[+	c #DFCE71",
"}+	c #CEBA64",
"|+	c #DECA6D",
"1+	c #DCC96B",
"2+	c #E6D171",
"3+	c #DACE6F",
"4+	c #C4B160",
"5+	c #C9B663",
"6+	c #9C944F",
"7+	c #998D4B",
"8+	c #FEFE95",
"9+	c #CFBC66",
"0+	c #908246",
"a+	c #3C371D",
"b+	c #070603",
"c+	c #060603",
"d+	c #38321B",
"e+	c #887B42",
"f+	c #CCB864",
"g+	c #D6C269",
"h+	c #A49450",
"i+	c #7B703C",
"j+	c #FFFFE9",
"k+	c #DCC66B",
"l+	c #D1BD66",
"m+	c #D4C067",
"n+	c #D8C46A",
"o+	c #DFC86C",
"p+	c #F2DC76",
"q+	c #E9D271",
"r+	c #7F733E",
"s+	c #7B6F3C",
"t+	c #968749",
"u+	c #DDCD6E",
"v+	c #DFCA6D",
"w+	c #DBC76B",
"x+	c #E8D572",
"y+	c #E8D472",
"z+	c #4D4826",
"A+	c #B1B1B1",
"B+	c #999999",
"C+	c #988A4A",
"D+	c #FFFFFC",
"E+	c #ECE179",
"F+	c #EEDB76",
"G+	c #716737",
"H+	c #7E7E7E",
"I+	c #FBFBFB",
"J+	c #FEFEFE",
"K+	c #C6C6C6",
"L+	c #F4ED81",
"M+	c #E2CD6F",
"N+	c #F4DD77",
"O+	c #D3C369",
"P+	c #646464",
"Q+	c #F0F0F0",
"R+	c #494949",
"S+	c #857941",
"T+	c #534B28",
"U+	c #827641",
"V+	c #FFFF9E",
"W+	c #F8E078",
"X+	c #FBE379",
"Y+	c #F6E47A",
"Z+	c #796F3C",
"`+	c #F4F4F4",
" @	c #A99953",
".@	c #6F6437",
"+@	c #6F6536",
"@@	c #9D8E4D",
"#@	c #9B8C4C",
"$@	c #FFFFD8",
"%@	c #FFFFCE",
"&@	c #F7ED83",
"*@	c #F2E179",
"=@	c #EDDA75",
"-@	c #221F10",
";@	c #808080",
">@	c #B1A056",
",@	c #847942",
"'@	c #837640",
")@	c #8B7E45",
"!@	c #FFFFD9",
"~@	c #FAF493",
"{@	c #EBD673",
"]@	c #444444",
"^@	c #606060",
"/@	c #B7A65A",
"(@	c #9E8F4E",
"_@	c #908347",
":@	c #8E8146",
"<@	c #9D8F4E",
"[@	c #A69651",
"}@	c #FFFFD3",
"|@	c #FFFFC1",
"1@	c #F9EB7F",
"2@	c #A39751",
"3@	c #B1A156",
"4@	c #E9D371",
"5@	c #AD9E55",
"6@	c #9D8F4D",
"7@	c #A1924F",
"8@	c #A0914E",
"9@	c #AE9F56",
"0@	c #7C713C",
"a@	c #FFFFB2",
"b@	c #FFFFB8",
"c@	c #FEFC8A",
"d@	c #ECD874",
"e@	c #776B3A",
"f@	c #A69953",
"g@	c #E7D472",
"h@	c #F7DF78",
"i@	c #CEBB65",
"j@	c #AE9E54",
"k@	c #AFA157",
"l@	c #908849",
"m@	c #81763F",
"n@	c #FFFCAB",
"o@	c #F6E87E",
"p@	c #7B6F3B",
"q@	c #8E8044",
"r@	c #B1A357",
"s@	c #AC9C54",
"t@	c #DCCB6D",
"u@	c #F1E079",
"v@	c #F3E37A",
"w@	c #CABC65",
"x@	c #A39453",
"y@	c #928446",
"z@	c #EFDE78",
"A@	c #706636",
"B@	c #443D21",
"C@	c #A1914F",
"D@	c #B0A256",
"E@	c #B8A75A",
"F@	c #F4E77D",
"G@	c #3E381E",
"H@	c #BABABA",
"I@	c #2E2A17",
"J@	c #918446",
"K@	c #958848",
"L@	c #B0A056",
"M@	c #D8C56A",
"N@	c #FAF081",
"O@	c #E8DF78",
"P@	c #D2BE67",
"Q@	c #D5C167",
"R@	c #645B31",
"S@	c #555555",
"T@	c #58542D",
"U@	c #998B4A",
"V@	c #8F8246",
"W@	c #E1CB6F",
"X@	c #EFE67D",
"Y@	c #E5DE7C",
"Z@	c #CBB763",
"`@	c #A2934E",
" #	c #6D6235",
".#	c #2E2A16",
"+#	c #050402",
"@#	c #2E2916",
"##	c #60572F",
"$#	c #978F4C",
"%#	c #9D934E",
"&#	c #A59851",
"*#	c #BBAB5C",
"=#	c #C1AF5E",
"-#	c #F2DD77",
";#	c #ECDA75",
">#	c #F0ED8A",
",#	c #D5C169",
"'#	c #D7C269",
")#	c #D3C068",
"!#	c #C8B762",
"~#	c #BDAA5C",
"{#	c #B09F56",
"]#	c #BFAD5D",
"^#	c #A59A54",
"/#	c #A29953",
"(#	c #B5A559",
"_#	c #D4C469",
":#	c #F2E47B",
"<#	c #F3E77C",
"[#	c #EDDF77",
"}#	c #BBAD5D",
"|#	c #9A8C4B",
"1#	c #D1BD65",
"2#	c #C1AF5D",
"3#	c #FBF483",
"4#	c #E6D572",
"5#	c #D4C66A",
"6#	c #C4B862",
"7#	c #BFB260",
"8#	c #DEC86C",
"9#	c #A29350",
"0#	c #D7C36A",
"a#	c #C6B461",
"b#	c #C7B461",
"c#	c #C6B460",
"d#	c #C4B25F",
"e#	c #9B8D4D",
"f#	c #7A6E3C",
"g#	c #918348",
"                                                . . . .                                         ",
"                                              . + @ # + .                                       ",
"                                              . $ % & + .                                       ",
"                                              . @ * + + .                                       ",
"                                              . + + + + + .                                     ",
"                                              . + + + + + + .                                   ",
"                                              . + + + + + + .                                   ",
"                                              . + + + + + + + .                                 ",
"                                  = - ; > , ' ) + + + + + + + + .                               ",
"                              ! ~ { ] ^ / ( _ : + + + + < + + [ } .                             ",
"                          - | 1 2 3 4 5 6 7 7 7 + + + + 8 9 + . [ + . .                         ",
"                        - 0 a b b c d e 7 7 7 7 + + + + f g h + + + + + .                       ",
"                    i > j k l m 6 n o p 7 7 7 7 + + + + q r s t u v w .                         ",
"                  x y z A B C D E F E 2 7 7 7 7 + + + + q q G H I J K                           ",
"                ~ L M N F O P Q R S T U 7 7 7 7 + + + + q q V V W X Y q                         ",
"                Z ^ `  . ...S +.@.#.$.%.2 7 7 7 + + + + q q V V V &.*.=.=.                      ",
"              -.;.>.,. . .'.).!.~.{.].^./.(._.:.+ + + + <.[.d V V V }.=.=.                      ",
"            |.1.;.2.3. .c 4.5.(.6.V V V 7.8.9.0.+ + + + a.b.c.d.5 e.f.g.h.                      ",
"            |.;.i.S j.6 k.l.m.n.o.p.V V V V V +.+ + + + q.r.s.t.e u.v.w.h.                      ",
"            ~ ;.x.V y.4.z.A.B.C.a D.E.V V V V F.+ + + + G.H.I.J.7 e K.L.                        ",
"          - { M.V (.G N.O.P.$.Q.2 R.S.7.V V V T.+ + + + U.V.W.X.Y.Z.                            ",
"          - `. +V 2 .+5 d ++@+C c #+$+%+V V V &++ + + + *+=+-+;+                                ",
"        >+{ ;.,+V '+)+b !+~+{+]+l 7 ^+/+(+X.X._++ + + + :+<+[+                                  ",
"        >+1.;.V V 7 }+|+2.1+1+{+c S 2+3+4+5+5+4++ + + + 6+7+                                    ",
"        >+>+8+m N.N.e.R 3.I.1+9+0+a+b+c+d+e+f+g++ + + + h+i+                                    ",
"        |.j+k+l+v.m+n+o+p+q+r++ + + + + + + + s++ + + + t+                                      ",
"        { |.u+n+v+v+w+x+y+z++ @ A+B++ + + + + + + + + + C+                                      ",
"        { D+E+O 2 2 +.F+G++ H+I+J+K++ + + + + + + + + + e+                                      ",
"        { { L+V M+T N+O++ P+J+Q+R++ + + + + + + + + + + S+T+U+                                  ",
"          1.V+8.W+X+Y+Z++ I+`+} + + + + + + + + + + + +  @.@+@@@#@                              ",
"          $@%@&@*@*@=@-@;@J+@ + + + + + + + + + + + + + >@,@@@'@)@@@@@                          ",
"          $@!@~@{@V V + ]@^@+ + + + + + + + + + + + + + /@>@(@@@_@:@<@[@                        ",
"            }@|@1@{@V -@+ + + + + + + + + + + + + + + + 2@3@4@5@6@7@8@9@0@                      ",
"            a@b@c@d@V e@+ + + + + + + + + + + + + + + + 5@f@g@h@i@j@k@l@m@                      ",
"              a@n@o@V B + + + + + + + + + + + + + + p@q@r@s@t@u@v@w@x@y@=.                      ",
"              ;.;.M.z@V A@+ + + + + + + + H+H++ + B@q@C@D@s@F V V V E@=.                        ",
"                ;.M.M.F@N.G@+ + + + + + [ J+H@+ I@J@K@L@M@ .+.V R.L@=.                          ",
"                  M.N@O@P@Q@R@+ + + + + } S@+ T@U@V@s@@+ . .S.W@L@=.                            ",
"                    X@Y@F u.Z@`@ #.#+#+#@###$#%#&#*#=#E +.-#;#7@=.                              ",
"                      >#,#'#)#!#C ~#{#J.]#^#/#(#J._#:#<#[#}#|#=.                                ",
"                        4.4.'#1#2#3#4#5#6#7#@+&.(.V 8#9#=.=.=.                                  ",
"                            ,#_+}.0#a#b#c#d#=#=#=#e#=.=.=.                                      ",
"                                  B =#K.=.=.=.s+f#g#                                            ",
"                                                                                                ",
"                                                                                                ",
"                                                                                                ",
"                                                                                                ",
"                                                                                                "};
