/* XPM */
static char * instrument_xpm[] = {
"16 16 11 1",
" 	c None",
".	c #D3D3D3",
"+	c #AAAAAA",
"@	c #000000",
"#	c #EAC2C2",
"$	c #707070",
"%	c #456B42",
"&	c #68DD4B",
"*	c #EFEFEF",
"=	c #9E9E9E",
"-	c #A3A3A3",
"...............+",
".@@#@@@@@@#@@@@$",
".@@#@@@@@@#@@@@$",
".%@#@@@@@@#@@@@$",
".&**@@@@@@#@@@@$",
".%*=%@@@@@#@@@@$",
".@%%&%@@@@#@@@@$",
".@@#%&%@@@#@@@@$",
".@@#@**@@@#@@@@$",
".@@#@*=%@@#@@@@$",
".@@#@@%&%@#@@@@$",
".@@#@@@%&**%@@@$",
".@@#@@@@%*=&**@$",
".@@#@@@@@@#%*=%$",
"-@@#@@@@@@#@@%&$",
"-$$$$$$$$$$$$$$$"};
