/* XPM */
static char * pattern_xpm[] = {
"16 16 7 1",
" 	c None",
".	c #D3D3D3",
"+	c #AAAAAA",
"@	c #000000",
"#	c #707070",
"$	c #46C43A",
"%	c #A3A3A3",
"...............+",
".@@@@@@@@@@@@@@#",
".@@$@@@$@@@$@@@#",
".@@@@@@@@@@@@@@#",
".@@@@@@@@@@@@@@#",
".@@@@@@@@@@@@@@#",
".@@$$@@@@@$@$@@#",
".@@$@$@@@@$@$@@#",
".@@$@$@$$@$$$@@#",
".@@$@$@@@@@@$@@#",
".@@$$@@@@@@@$@@#",
".@@@@@@@@@@@@@@#",
".@@@@@@@@@@@@@@#",
".@@@@@@@@@@@@@@#",
"%@@$@@@$@@@$@@@#",
"%###############"};
