/* XPM */
static char * sample_xpm[] = {
"16 16 9 1",
" 	c None",
".	c #D3D3D3",
"+	c #AAAAAA",
"@	c #000000",
"#	c #707070",
"$	c #F29B87",
"%	c #E87B68",
"&	c #EA522C",
"*	c #A3A3A3",
"...............+",
".@@@@@@@@@@@@@@#",
".@@@@@@@@@@@@@@#",
".@@@@@@@@$@@@@@#",
".@@$@@@@$%$@@@@#",
".@@%$@$@%&%@@$@#",
".@$&%$%$&&&@$%@#",
".$%&&&&&&&&$%&$#",
".@$&%$%$&&&@$%@#",
".@@%$@$@%&%@@$@#",
".@@$@@@@$%$@@@@#",
".@@@@@@@@$@@@@@#",
".@@@@@@@@@@@@@@#",
".@@@@@@@@@@@@@@#",
"*@@@@@@@@@@@@@@#",
"*###############"};
